HIERARCHY
ROOT Hips
{
  OFFSET 48.685 94.3175 4.71871
  CHANNELS 6 Xposition Yposition Zposition Zrotation Xrotation Yrotation
  JOINT spine
  {
    OFFSET 0 7.80059 0.448573
    CHANNELS 3 Zrotation Xrotation Yrotation
    JOINT spine1
    {
      OFFSET 0 10.1364 0
      CHANNELS 3 Zrotation Xrotation Yrotation
      JOINT spine2
      {
        OFFSET 0 9.71251 0
        CHANNELS 3 Zrotation Xrotation Yrotation
        JOINT Neck
        {
          OFFSET 0 24.9361 1.18887
          CHANNELS 3 Zrotation Xrotation Yrotation
          JOINT Head
          {
            OFFSET 0 7.53384 0
            CHANNELS 3 Zrotation Xrotation Yrotation
            End Site
            {
              OFFSET 0 18.2361 -6.01402
            }
          }
        }
        JOINT RightShoulder
        {
          OFFSET -4.08965 10.4888 -0.569457
          CHANNELS 3 Zrotation Xrotation Yrotation
          JOINT RightArm
          {
            OFFSET 0 13.757 0
            CHANNELS 3 Zrotation Xrotation Yrotation
            JOINT RightArmRoll
            {
              OFFSET 0 6.94478 0
              CHANNELS 3 Zrotation Xrotation Yrotation
              JOINT RightForeArm
              {
                OFFSET 0 20.2277 0
                CHANNELS 3 Zrotation Xrotation Yrotation
                JOINT RightForeArmRoll
                {
                  OFFSET 0 7.79312 0
                  CHANNELS 3 Zrotation Xrotation Yrotation
                  JOINT RightHand
                  {
                    OFFSET 0 15.6391 0
                    CHANNELS 3 Zrotation Xrotation Yrotation
                    End Site
                    {
                      OFFSET 0 0 0
                    }
                  }
                }
              }
            }
          }
        }
        JOINT LeftShoulder
        {
          OFFSET 4.08965 10.4888 -0.569457
          CHANNELS 3 Zrotation Xrotation Yrotation
          JOINT LeftArm
          {
            OFFSET 0 13.757 0
            CHANNELS 3 Zrotation Xrotation Yrotation
            JOINT LeftArmRoll
            {
              OFFSET 0 6.94478 0
              CHANNELS 3 Zrotation Xrotation Yrotation
              JOINT LeftForeArm
              {
                OFFSET 0 20.2277 0
                CHANNELS 3 Zrotation Xrotation Yrotation
                JOINT LeftForeArmRoll
                {
                  OFFSET 0 7.79312 0
                  CHANNELS 3 Zrotation Xrotation Yrotation
                  JOINT LeftHand
                  {
                    OFFSET 0 15.6391 0
                    CHANNELS 3 Zrotation Xrotation Yrotation
                    End Site
                    {
                      OFFSET 0 0 0
                    }
                  }
                }
              }
            }
          }
        }
      }
    }
  }
  JOINT RightUpLeg
  {
    OFFSET -6.91416 -1.26788 -1.06358
    CHANNELS 3 Zrotation Xrotation Yrotation
    JOINT RightUpLegRoll
    {
      OFFSET 0 18.3378 0
      CHANNELS 3 Zrotation Xrotation Yrotation
      JOINT RightLeg
      {
        OFFSET 0 -22.7085 0
        CHANNELS 3 Zrotation Xrotation Yrotation
        JOINT RightLegRoll
        {
          OFFSET 0 22.7828 0
          CHANNELS 3 Zrotation Xrotation Yrotation
          JOINT RightFoot
          {
            OFFSET 0 18.9629 0
            CHANNELS 3 Zrotation Xrotation Yrotation
            JOINT RightToeBase
            {
              OFFSET 0 15.852 0
              CHANNELS 3 Zrotation Xrotation Yrotation
              End Site
              {
                OFFSET 0.00671906 7.67701 -0.884893
              }
            }
          }
        }
      }
    }
  }
  JOINT LeftUpLeg
  {
    OFFSET 6.91416 -1.26788 -1.06358
    CHANNELS 3 Zrotation Xrotation Yrotation
    JOINT LeftUpLegRoll
    {
      OFFSET 0 18.3379 0
      CHANNELS 3 Zrotation Xrotation Yrotation
      JOINT LeftLeg
      {
        OFFSET 0 22.7084 0
        CHANNELS 3 Zrotation Xrotation Yrotation
        JOINT LeftLegRoll
        {
          OFFSET 0 22.9934 0
          CHANNELS 3 Zrotation Xrotation Yrotation
          JOINT LeftFoot
          {
            OFFSET 0 18.7522 0
            CHANNELS 3 Zrotation Xrotation Yrotation
            JOINT LeftToeBase
            {
              OFFSET 0 15.852 0
              CHANNELS 3 Zrotation Xrotation Yrotation
              End Site
              {
                OFFSET -0.030112 7.677 -0.884893
              }
            }
          }
        }
      }
    }
  }
}
MOTION
Frames: 13
Frame Time: 0.00208333
55.313 93.9231 9.33579 -0.48224 -3.1315 -0.97606 0.00621777 -0.05491 0.153828 0.0329869 3.89367 0.305285 0.0293659 5.53874 0.305063 -13.0703 19.6331 1.27344 12.2961 -11.4304 -0.465617 72.1671 -5.15551 -3.98022 99.742 15.4599 14.9256 -4.40564e-007 6.46116e-007 -7.04608e-008 8.81327 16.9714 -2.58171 -3.46924e-006 4.95891e-007 -3 8.0291 -4.95148 0.69766 -65.582 -3.57098 2.74845 -105.614 6.02001 -15.2924 -1.56946e-005 2.17567e-007 -8.66675e-007 -1.97372 18.5411 1.32349 1.4776e-006 -8.07451e-006 3 -8.03007 -4.95144 -0.697667 177.144 4.29453 -0.87109 180 7.01579e-015 179.072 -179.484 13.0808 179.067 3.03726e-006 -2.56543e-006 0.0265692 -16.0029 69.071 20.3489 8.13589 25.2327 -3.48748 -179.734 2.71346 6.06854 4.54188e-006 -4.6773e-006 -1.48261 -5.54762 -14.6676 -0.543317 5.06495e-006 -4.01758e-006 -0.32549 28.8971 73.4686 -26.3689 -8.13012 25.2395 3.48502 
55.3057 93.9126 9.34068 -0.479897 -3.11923 -0.975362 0.00725345 -0.0532724 0.15335 0.0333445 3.89764 0.304087 0.0297423 5.54271 0.303857 -13.0895 19.5551 1.2634 12.3336 -11.45 -0.463579 72.1466 -5.15824 -3.98038 99.7622 15.4198 14.9384 -4.40564e-007 6.46116e-007 -7.04608e-008 8.80925 16.9835 -2.58293 -3.46924e-006 4.95891e-007 -3 8.0291 -4.95148 0.69766 -65.5802 -3.57283 2.74932 -105.613 5.97743 -15.2804 -1.56946e-005 2.17567e-007 -8.66675e-007 -1.99531 18.6057 1.33051 1.4776e-006 -8.07451e-006 3 -8.03007 -4.95144 -0.697667 177.123 4.31092 -0.817449 180 7.01579e-015 179.071 -179.553 13.0936 179.08 3.03726e-006 -2.56543e-006 0.0267934 -16.0349 69.0754 20.3534 8.13589 25.2327 -3.48748 -179.731 2.72314 6.06126 4.54188e-006 -4.6773e-006 -1.48257 -5.55395 -14.6724 -0.544262 5.06495e-006 -4.01758e-006 -0.32491 28.8966 73.4685 -26.3686 -8.13012 25.2395 3.48502 
55.2998 93.9114 9.36579 -0.477619 -3.10714 -0.97463 0.00834223 -0.0516576 0.152924 0.0337245 3.90161 0.302978 0.0301397 5.54668 0.302739 -13.1084 19.4772 1.25343 12.3711 -11.469 -0.461489 72.1267 -5.16093 -3.98055 99.7813 15.3798 14.9513 -4.40564e-007 6.46116e-007 -7.04608e-008 8.80539 16.9951 -2.58411 -3.46924e-006 4.95891e-007 -3 8.0291 -4.95148 0.69766 -65.5787 -3.57481 2.75028 -105.612 5.9364 -15.2693 -1.56946e-005 2.17567e-007 -8.66675e-007 -2.01573 18.669 1.33716 1.4776e-006 -8.07451e-006 3 -8.03007 -4.95144 -0.697667 177.101 4.3263 -0.759706 180 7.01579e-015 179.071 -179.627 13.1045 179.093 3.03726e-006 -2.56543e-006 0.0268926 -16.0659 69.0784 20.3568 8.13589 25.2327 -3.48748 -179.728 2.73247 6.05421 4.54188e-006 -4.6773e-006 -1.48267 -5.56012 -14.6779 -0.545222 5.06495e-006 -4.01758e-006 -0.324381 28.899 73.4697 -26.3706 -8.13012 25.2395 3.48502 
55.328 93.9142 9.37505 -0.475387 -3.09519 -0.973874 0.00946818 -0.0500588 0.152534 0.0341203 3.90558 0.30193 0.0305518 5.55065 0.301683 -13.1271 19.3994 1.24352 12.4085 -11.4878 -0.459363 72.1073 -5.1636 -3.98074 99.7996 15.3398 14.9642 -4.40565e-007 6.46116e-007 -7.04608e-008 8.80165 17.0064 -2.58527 -3.46924e-006 4.95891e-007 -3 8.0291 -4.95148 0.69766 -65.5773 -3.57688 2.7513 -105.612 5.89644 -15.2589 -1.56946e-005 2.17567e-007 -8.66675e-007 -2.03533 18.7315 1.34355 1.4776e-006 -8.07451e-006 3 -8.03007 -4.95144 -0.697667 177.077 4.34098 -0.699089 180 7.01579e-015 179.07 -179.705 13.114 179.108 3.03726e-006 -2.56543e-006 0.0269043 -16.0962 69.0805 20.3594 8.13589 25.2327 -3.48748 -179.725 2.74157 6.04732 4.54188e-006 -4.6773e-006 -1.48285 -5.56618 -14.6841 -0.546193 5.06495e-006 -4.01758e-006 -0.323888 28.9036 73.4717 -26.3743 -8.13012 25.2395 3.48502 
55.3139 93.9088 9.38507 -0.473182 -3.08331 -0.973105 0.0106154 -0.0484692 0.152166 0.034525 3.90955 0.300917 0.0309723 5.55462 0.300662 -13.1458 19.3216 1.23365 12.4459 -11.5063 -0.457216 72.0882 -5.16626 -3.98094 99.8174 15.2999 14.977 -4.40565e-007 6.46116e-007 -7.04608e-008 8.79797 17.0174 -2.58641 -3.46924e-006 4.95891e-007 -3 8.0291 -4.95148 0.69766 -65.5761 -3.579 2.75236 -105.611 5.8571 -15.2489 -1.56946e-005 2.17567e-007 -8.66675e-007 -2.05447 18.7935 1.34979 1.4776e-006 -8.07451e-006 3 -8.03007 -4.95144 -0.697667 177.052 4.35525 -0.63683 180 7.01578e-015 179.07 -179.785 13.1228 179.122 3.03726e-006 -2.56543e-006 0.026866 -16.1261 69.0821 20.3616 8.13589 25.2327 -3.48748 -179.722 2.75054 6.04052 4.54188e-006 -4.6773e-006 -1.48308 -5.57218 -14.6905 -0.547168 5.06495e-006 -4.01758e-006 -0.323414 28.9094 73.4743 -26.3788 -8.13012 25.2395 3.48502 
55.2942 93.8962 9.39212 -0.470983 -3.07145 -0.972333 0.0117679 -0.0468818 0.151803 0.0349322 3.91352 0.299913 0.0313951 5.55859 0.299649 -13.1645 19.2438 1.2238 12.4833 -11.5248 -0.455064 72.0692 -5.16892 -3.98114 99.8351 15.26 14.9899 -4.40564e-007 6.46116e-007 -7.04608e-008 8.79431 17.0285 -2.58755 -3.46924e-006 4.95891e-007 -3 8.0291 -4.95148 0.69766 -65.5749 -3.58113 2.75342 -105.61 5.81792 -15.239 -1.56946e-005 2.17567e-007 -8.66675e-007 -2.0735 18.8553 1.35599 1.4776e-006 -8.07451e-006 3 -8.03007 -4.95144 -0.697667 177.028 4.36941 -0.574159 180 7.01578e-015 179.069 -179.866 13.1315 179.137 3.03726e-006 -2.56543e-006 0.0268152 -16.156 69.0835 20.3637 8.13589 25.2327 -3.48748 -179.72 2.75947 6.03375 4.54188e-006 -4.6773e-006 -1.48332 -5.57815 -14.697 -0.548146 5.06495e-006 -4.01758e-006 -0.322946 28.9155 73.477 -26.3836 -8.13012 25.2395 3.48502 
55.2927 93.8928 9.38883 -0.468772 -3.05956 -0.971568 0.0129098 -0.0452899 0.151429 0.035335 3.91749 0.298892 0.0318138 5.56256 0.298619 -13.1833 19.166 1.21395 12.5208 -11.5434 -0.452922 72.05 -5.17158 -3.98134 99.853 15.2201 15.0028 -4.40564e-007 6.46116e-007 -7.04608e-008 8.79062 17.0396 -2.5887 -3.46924e-006 4.95891e-007 -3 8.0291 -4.95148 0.69766 -65.5736 -3.58324 2.75447 -105.609 5.77842 -15.2289 -1.56946e-005 2.17567e-007 -8.66675e-007 -2.09278 18.9174 1.36228 1.4776e-006 -8.07451e-006 3 -8.03007 -4.95144 -0.697667 177.003 4.38377 -0.512305 180 7.01578e-015 179.069 -179.946 13.1405 179.152 3.03726e-006 -2.56543e-006 0.0267894 -16.186 69.0852 20.366 8.13589 25.2327 -3.48748 -179.717 2.76847 6.02693 4.54188e-006 -4.6773e-006 -1.48353 -5.58417 -14.7034 -0.54912 5.06495e-006 -4.01758e-006 -0.322468 28.921 73.4794 -26.3879 -8.13012 25.2395 3.48502 
55.311 93.8944 9.40282 -0.466528 -3.04757 -0.970819 0.0140253 -0.0436865 0.151029 0.0357269 3.92146 0.297826 0.0322223 5.56653 0.297545 -13.2022 19.0882 1.20408 12.5582 -11.5622 -0.450805 72.0304 -5.17426 -3.98153 99.8716 15.1801 15.0156 -4.40564e-007 6.46116e-007 -7.04608e-008 8.78685 17.051 -2.58987 -3.46924e-006 4.95891e-007 -3 8.0291 -4.95148 0.69766 -65.5722 -3.58528 2.75547 -105.608 5.73814 -15.2183 -1.56946e-005 2.17567e-007 -8.66675e-007 -2.11268 18.9802 1.36877 1.4776e-006 -8.07451e-006 3 -8.03007 -4.95144 -0.697667 176.98 4.39863 -0.4525 180 7.01578e-015 179.068 179.977 13.1504 179.166 3.03726e-006 -2.56543e-006 0.0268261 -16.2165 69.0876 20.3688 8.13589 25.2327 -3.48748 -179.714 2.77764 6.01999 4.54188e-006 -4.6773e-006 -1.48369 -5.59026 -14.7093 -0.550088 5.06495e-006 -4.01758e-006 -0.321964 28.925 73.4812 -26.3911 -8.13012 25.2395 3.48502 
55.3192 93.9179 9.40927 -0.464233 -3.03542 -0.970098 0.0150982 -0.0420649 0.150587 0.0361011 3.92542 0.29669 0.0326144 5.57049 0.296401 -13.2214 19.0102 1.19416 12.5957 -11.5815 -0.44873 72.0104 -5.17697 -3.9817 99.8912 15.1401 15.0285 -4.40564e-007 6.46116e-007 -7.04608e-008 8.78294 17.0627 -2.59106 -3.46924e-006 4.95891e-007 -3 8.0291 -4.95148 0.69766 -65.5707 -3.58722 2.75641 -105.607 5.69661 -15.207 -1.56946e-005 2.17567e-007 -8.66675e-007 -2.13355 19.0439 1.37557 1.4776e-006 -8.07451e-006 3 -8.03007 -4.95144 -0.697667 176.957 4.41429 -0.395973 180 7.01578e-015 179.067 179.905 13.1619 179.179 3.03726e-006 -2.56543e-006 0.0269628 -16.2478 69.091 20.3726 8.13589 25.2327 -3.48748 -179.711 2.78708 6.01287 4.54188e-006 -4.6773e-006 -1.48374 -5.59648 -14.7147 -0.551044 5.06495e-006 -4.01758e-006 -0.32142 28.9265 73.482 -26.3924 -8.13012 25.2395 3.48502 
55.3021 93.9138 9.41185 -0.461866 -3.02307 -0.969414 0.0161129 -0.0404181 0.150089 0.0364511 3.92939 0.295457 0.0329838 5.57446 0.29516 -13.2409 18.9322 1.18418 12.6332 -11.6013 -0.446711 71.9896 -5.1797 -3.98184 99.912 15.1 15.0414 -4.40564e-007 6.46116e-007 -7.04608e-008 8.77886 17.075 -2.59229 -3.46924e-006 4.95891e-007 -3 8.0291 -4.95148 0.69766 -65.5688 -3.58902 2.75724 -105.606 5.65337 -15.1947 -1.56946e-005 2.17567e-007 -8.66675e-007 -2.15576 19.1089 1.3828 1.4776e-006 -8.07451e-006 3 -8.03007 -4.95144 -0.697667 176.937 4.43104 -0.343954 180 7.01578e-015 179.067 179.838 13.1754 179.192 3.03726e-006 -2.56543e-006 0.027237 -16.2802 69.0959 20.3776 8.13589 25.2327 -3.48748 -179.708 2.79689 6.0055 4.54188e-006 -4.6773e-006 -1.48366 -5.60288 -14.7191 -0.551984 5.06495e-006 -4.01758e-006 -0.32082 28.9248 73.4813 -26.3912 -8.13012 25.2395 3.48502 
55.3045 93.9121 9.42797 -0.459409 -3.01045 -0.968777 0.0170533 -0.0387394 0.149517 0.0367702 3.93336 0.2941 0.0333243 5.57843 0.293796 -13.2609 18.8541 1.17412 12.6707 -11.6218 -0.444764 71.9679 -5.18248 -3.98195 99.9346 15.0597 15.0542 -4.40564e-007 6.46116e-007 -7.04608e-008 8.77455 17.0879 -2.59358 -3.46924e-006 4.95891e-007 -3 8.0291 -4.95148 0.69766 -65.5665 -3.59065 2.75795 -105.605 5.60796 -15.1811 -1.56946e-005 2.17567e-007 -8.66675e-007 -2.17965 19.1757 1.39058 1.4776e-006 -8.07451e-006 3 -8.03007 -4.95144 -0.697667 176.919 4.4492 -0.297674 180 7.01578e-015 179.066 179.778 13.1917 179.203 3.03726e-006 -2.56543e-006 0.0276863 -16.3139 69.1026 20.3841 8.13589 25.2327 -3.48748 -179.704 2.80718 5.99781 4.54188e-006 -4.6773e-006 -1.48341 -5.60951 -14.7225 -0.552905 5.06495e-006 -4.01758e-006 -0.320149 28.9188 73.4789 -26.3867 -8.13012 25.2395 3.48502 
55.2906 94.0395 9.4273 -0.45684 -2.99751 -0.968197 0.0179036 -0.0370218 0.148856 0.0370517 3.93732 0.292594 0.0336298 5.58239 0.292282 -13.2813 18.7758 1.16395 12.7083 -11.6432 -0.442905 71.9451 -5.18531 -3.98203 99.9592 15.0193 15.0671 -4.40564e-007 6.46116e-007 -7.04608e-008 8.76996 17.1016 -2.59492 -3.46924e-006 4.95891e-007 -3 8.0291 -4.95148 0.69766 -65.5638 -3.59205 2.75851 -105.604 5.55989 -15.1659 -1.56946e-005 2.17567e-007 -8.66675e-007 -2.20561 19.2446 1.39901 1.4776e-006 -8.07451e-006 3 -8.03007 -4.95144 -0.697667 176.905 4.46907 -0.258363 180 7.01578e-015 179.065 179.727 13.2111 179.212 3.03726e-006 -2.56543e-006 0.028348 -16.3493 69.1116 20.3926 8.13589 25.2327 -3.48748 -179.7 2.81805 5.98973 4.54188e-006 -4.6773e-006 -1.48294 -5.61641 -14.7246 -0.553801 5.06495e-006 -4.01758e-006 -0.319391 28.9077 73.4742 -26.3782 -8.13012 25.2395 3.48502 
55.2848 94.0091 9.42338 -0.454142 -2.98419 -0.967685 0.0186478 -0.0352586 0.148092 0.0372891 3.94129 0.290911 0.033894 5.58636 0.290593 -13.3024 18.6973 1.15367 12.7459 -11.6656 -0.441149 71.9209 -5.1882 -3.98206 99.9862 14.9787 15.0799 -4.40564e-007 6.46116e-007 -7.04608e-008 8.76505 17.1163 -2.59634 -3.46924e-006 4.95891e-007 -3 8.0291 -4.95148 0.69766 -65.5606 -3.5932 2.75888 -105.603 5.50872 -15.1489 -1.56946e-005 2.17567e-007 -8.66675e-007 -2.23399 19.3159 1.40822 1.4776e-006 -8.07451e-006 3 -8.03007 -4.95144 -0.697667 176.893 4.49094 -0.227252 180 7.01577e-015 179.064 179.686 13.2343 179.219 3.03726e-006 -2.56543e-006 0.0292597 -16.3866 69.1233 20.4033 8.13589 25.2327 -3.48748 -179.696 2.8296 5.98119 4.54188e-006 -4.6773e-006 -1.48222 -5.62364 -14.7251 -0.554669 5.06495e-006 -4.01758e-006 -0.318532 28.8906 73.4669 -26.3651 -8.13012 25.2395 3.48502 
